<svg width="146" height="24" viewBox="0 0 146 24" fill="none" xmlns="http://www.w3.org/2000/svg">
<path d="M26.8723 15.5493H29.5964V0L26.8723 0.87324V15.5493Z" fill="#04598C"/>
<path d="M43.7845 4.4507C42.3657 4.4507 41.0888 4.90141 40.0956 6.4507C39.4713 4.92958 38.1376 4.42253 36.8323 4.42253C35.7824 4.42253 34.5055 4.8169 33.938 5.94366L33.7393 4.61972H31.2138V15.5775H33.938V9.69014C33.938 8.25352 34.8176 6.92958 36.2932 6.92958C37.7971 6.92958 38.5633 8.22535 38.5633 9.69014V15.5493H41.2874V9.69014C41.2874 8.25352 42.1954 6.98592 43.671 6.98592C45.1466 6.98592 45.7425 8.19718 45.7425 9.66197V15.5775H48.4666V9.66197C48.4382 6.33803 46.9059 4.4507 43.7845 4.4507Z" fill="#04598C"/>
<path d="M70.2027 12.7606C69.8055 12.9577 69.2947 13.0986 68.8974 13.0986C68.0461 13.0986 67.4786 12.5916 67.4786 11.5493V6.8169H70.5432V4.47887H67.507V0L64.7829 0.87324V4.47887H62.7398V6.8169H64.7829V11.5493C64.7829 14.2817 66.3436 15.6338 68.7272 15.5493C69.5501 15.5211 70.2027 15.3803 70.9973 15.0704L70.2027 12.7606Z" fill="#04598C"/>
<path d="M80.3047 12.0563C79.6804 12.7042 78.3467 13.0704 77.3535 13.0704C75.424 13.0704 74.2322 12.0845 74.0619 10.7324H82.6599C83.0855 6.22535 80.7871 3.97183 77.0982 3.97183C73.5228 3.97183 71.2527 6.3662 71.2527 9.69014C71.2527 13.1831 73.5227 15.5211 77.3252 15.5211C78.9994 15.5211 80.9006 14.9577 82.064 13.7465L80.3047 12.0563ZM77.2117 6.3662C78.7723 6.3662 79.9074 7.07042 80.0777 8.50704H74.1187C74.5159 7.07042 75.7361 6.3662 77.2117 6.3662Z" fill="#04598C"/>
<path d="M91.9957 12.0282C91.3146 12.7042 90.4634 12.9296 89.5837 12.9296C87.8811 12.9296 86.4623 11.831 86.4623 9.74648C86.4623 7.83099 87.796 6.50704 89.6404 6.50704C90.4066 6.50704 91.2011 6.78873 91.8538 7.38028L93.5847 5.57747C92.3646 4.39437 91.1728 3.94366 89.6121 3.94366C86.4056 3.94366 83.7666 5.85916 83.7666 9.74648C83.7666 13.6338 86.4339 15.5493 89.6121 15.5493C91.2579 15.5493 92.5916 15.0704 93.8685 13.831L91.9957 12.0282Z" fill="#04598C"/>
<path d="M101.218 4.4507C99.9694 4.4507 98.7492 4.8169 97.7844 6.08451V0L95.0603 0.87324V15.5493H97.7844V9.94366C97.7844 8.30986 98.8911 6.95775 100.509 6.95775C101.956 6.95775 103.006 7.80282 103.006 9.80282V15.5493H105.73V9.77465C105.73 6.53521 104.339 4.4507 101.218 4.4507Z" fill="#04598C"/>
<path d="M19.381 3.38028C16.0042 3.38028 13.2517 6.11268 13.2517 9.46479C13.2517 12.8169 16.0042 15.5493 19.381 15.5493C20.7998 15.5493 22.0767 15.0704 23.1266 14.2817V15.5493H25.5102V8.87324H25.4818C25.1697 5.80282 22.5591 3.38028 19.381 3.38028ZM19.381 13.1831C17.3095 13.1831 15.6353 11.5211 15.6353 9.46479C15.6353 7.40845 17.3095 5.74648 19.381 5.74648C21.4524 5.74648 23.1266 7.40845 23.1266 9.46479C23.1266 11.5211 21.4524 13.1831 19.381 13.1831Z" fill="#04598C"/>
<path d="M59.5049 15.5493H61.8885V8.87324H61.8601C61.548 5.80282 58.9374 3.38028 55.7592 3.38028C52.3825 3.38028 49.63 6.11268 49.63 9.46479C49.63 12.8169 52.3825 15.5493 55.7592 15.5493C57.178 15.5493 58.455 15.0704 59.5049 14.2817V15.5493ZM55.7592 13.1831C53.6878 13.1831 52.0136 11.5211 52.0136 9.46479C52.0136 7.40845 53.6878 5.74648 55.7592 5.74648C57.8307 5.74648 59.5049 7.40845 59.5049 9.46479C59.5049 11.5211 57.8307 13.1831 55.7592 13.1831Z" fill="#04598C"/>
<path d="M11.9464 3.88732C11.918 3.88732 11.918 3.88732 11.9464 3.88732C11.918 3.85916 11.918 3.85916 11.8896 3.83099L11.0383 2.98592L9.50603 4.50704C8.54124 3.85916 7.37781 3.49296 6.12926 3.49296C2.75249 3.52113 0 6.25352 0 9.60563C0 12.5352 2.09984 15.0141 4.90908 15.5775V18.4225C3.88754 18.8732 3.17814 19.8873 3.17814 21.0704C3.17814 22.6761 4.51182 24 6.12926 24C7.7467 24 9.08039 22.6761 9.08039 21.0704C9.08039 19.8873 8.37098 18.8732 7.34944 18.4225V15.5775C10.1587 15.0141 12.2585 12.5634 12.2585 9.60563C12.2585 8.39437 11.8896 7.26761 11.2937 6.33803L12.826 4.8169L11.9464 3.88732ZM6.12926 22.0563C5.59011 22.0563 5.13609 21.6056 5.13609 21.0704C5.13609 20.5352 5.59011 20.0845 6.12926 20.0845C6.66841 20.0845 7.12243 20.5352 7.12243 21.0704C7.12243 21.6056 6.66841 22.0563 6.12926 22.0563ZM6.12926 13.2676C4.08617 13.2676 2.44035 11.6338 2.44035 9.60563C2.44035 7.57747 4.08617 5.94366 6.12926 5.94366C8.17235 5.94366 9.81817 7.57747 9.81817 9.60563C9.81817 11.6338 8.17235 13.2676 6.12926 13.2676Z" fill="#04598C"/>
</svg>
